<svg xmlns="http://www.w3.org/2000/svg" viewBox="0 0 96 96" role="img" aria-label="Domain Checker logo">
  <defs>
    <linearGradient id="bg" x1="18" y1="12" x2="78" y2="84" gradientUnits="userSpaceOnUse">
      <stop stop-color="#1d4ed8"/>
      <stop offset="1" stop-color="#0ea5e9"/>
    </linearGradient>
    <linearGradient id="orb" x1="30" y1="24" x2="64" y2="70" gradientUnits="userSpaceOnUse">
      <stop stop-color="#e7f1ff"/>
      <stop offset="1" stop-color="#cfe6ff"/>
    </linearGradient>
    <linearGradient id="accent-ring" x1="18" y1="18" x2="78" y2="78" gradientUnits="userSpaceOnUse">
      <stop stop-color="#9cc9ff" stop-opacity=".7"/>
      <stop offset="1" stop-color="#2563eb" stop-opacity=".9"/>
    </linearGradient>
    <linearGradient id="check" x1="60" y1="58" x2="80" y2="80" gradientUnits="userSpaceOnUse">
      <stop stop-color="#22c55e"/>
      <stop offset="1" stop-color="#0f9d58"/>
    </linearGradient>
  </defs>
  <rect x="6" y="6" width="84" height="84" rx="22" fill="url(#bg)"/>
  <rect x="10" y="10" width="76" height="76" rx="19" fill="#0b225a" opacity=".18"/>
  <circle cx="48" cy="44" r="30" fill="url(#orb)" stroke="url(#accent-ring)" stroke-width="2"/>
  <ellipse cx="48" cy="44" rx="28" ry="14" fill="none" stroke="#2563eb" stroke-width="1.6" opacity=".65"/>
  <ellipse cx="48" cy="44" rx="18" ry="32" fill="none" stroke="#0ea5e9" stroke-width="1.4" opacity=".7" transform="rotate(-12 48 44)"/>
  <ellipse cx="48" cy="44" rx="18" ry="32" fill="none" stroke="#0ea5e9" stroke-width="1.4" opacity=".45" transform="rotate(12 48 44)"/>
  <path d="M22 44h52" stroke="#1d4ed8" stroke-width="1.8" stroke-linecap="round" opacity=".7"/>
  <path d="M32 24c-5 7-8 17-8 20.5S27 58 32 64" fill="none" stroke="#1d4ed8" stroke-width="1.4" opacity=".65"/>
  <path d="M64 24c5 7 8 17 8 20.5S69 58 64 64" fill="none" stroke="#1d4ed8" stroke-width="1.4" opacity=".65"/>
  <circle cx="36" cy="30" r="3" fill="#2563eb" stroke="#0ea5e9" stroke-width="1"/>
  <circle cx="62" cy="58" r="3" fill="#2563eb" stroke="#0ea5e9" stroke-width="1"/>
  <circle cx="52" cy="24" r="2.6" fill="#10b981" opacity=".95"/>
  <circle cx="28" cy="58" r="2.4" fill="#0ea5e9" opacity=".85"/>
  <circle cx="74" cy="44" r="3" fill="#fff" opacity=".7"/>
  <circle cx="71" cy="69" r="13.5" fill="url(#check)" stroke="#0b3825" stroke-opacity=".25" stroke-width="1.5"/>
  <path d="M64.5 69.2l4.8 4.4 8.6-11.1" fill="none" stroke="#f8fdf9" stroke-width="3" stroke-linecap="round" stroke-linejoin="round"/>
  <path d="M18 74c10.5 7 20 9 30 9s19.5-2 30-9" fill="none" stroke="#3b82f6" stroke-width="2" stroke-linecap="round" opacity=".35"/>
</svg>
